<svg viewBox="0 0 512 512" xmlns="http://www.w3.org/2000/svg"><path d="m511.914062 256c0-141.386719-114.59375-256-255.957031-256-141.359375 0-255.957031 114.613281-255.957031 256s114.597656 256 255.957031 256c141.363281 0 255.957031-114.613281 255.957031-256zm0 0" fill="#f36986"/><path d="m413.109375 53.929688c33.789063 43.382812 53.921875 97.925781 53.921875 157.179687 0 141.382813-114.59375 256-255.957031 256-59.242188 0-113.773438-20.140625-157.152344-53.933594 46.835937 60.136719 119.917969 98.824219 202.035156 98.824219 141.363281 0 255.957031-114.613281 255.957031-256 0-82.132812-38.675781-155.226562-98.804687-202.070312zm0 0" fill="#fc476e"/><path d="m144.304688 144.328125c-61.664063 61.675781-61.664063 161.667969 0 223.34375 61.664062 61.671875 161.640624 61.671875 223.308593 0 61.664063-61.675781 61.664063-161.667969 0-223.34375-61.664062-61.675781-161.644531-61.675781-223.308593 0zm35.507812 187.828125c-35.890625-35.898438-41.140625-90.832031-15.765625-132.308594l148.050781 148.078125c-41.46875 25.378907-96.390625 20.128907-132.285156-15.769531zm167.859375-19.683594-148.179687-148.203125c41.507812-25.605469 96.625-20.417969 132.609374 15.574219 35.988282 35.992188 41.171876 91.117188 15.570313 132.628906zm0 0" fill="#ffd2e3"/><path d="m367.609375 144.328125c-36.75-36.757813-87.105469-51.601563-134.851563-44.546875 32.367188 4.785156 63.535157 19.628906 88.449219 44.546875 61.664063 61.675781 61.664063 161.667969 0 223.34375-24.914062 24.917969-56.082031 39.761719-88.449219 44.546875 47.746094 7.054688 98.101563-7.789062 134.851563-44.546875 61.667969-61.675781 61.667969-161.667969 0-223.34375zm0 0" fill="#ffbbd7"/></svg>