<svg id="Capa_1" enable-background="new 0 0 512 512" height="512" viewBox="0 0 512 512" width="512" xmlns="http://www.w3.org/2000/svg"><g><path d="m512 256c0 31.21-5.59 61.12-15.82 88.78-21.96 59.38-65.3 35.156-120.68 64.446-12.43 6.58-25.48 12.16-39.02 16.63-5.24 1.73-10.55 3.3-15.92 4.7-20.63 5.36-42.26 8.21-64.56 8.21-19.42 0-38.33-2.16-56.51-6.26-2.7-.61-5.38-1.26-8.05-1.95-7.11-1.85-14.1-3.99-20.96-6.43-45.77-16.21-85.55-45.08-115.15-82.39-16.63-20.97-30.04 28.634-39.5 3.074 0-.01-.01-.02-.01-.03-10.23-27.66-15.82-57.57-15.82-88.78 0-141.38 114.62-256 256-256s256 114.62 256 256z" fill="#698ed5"/><g><path d="m499.428 46.34-50.179-18.739-4.229 28.972 4.229 33.885 50.179-18.739c11.742-4.386 11.742-20.994 0-25.379z" fill="#dd636e"/><path d="m434.286 27.601h14.963v191.876h-14.963z" fill="#c2c2c2"/><path d="m434.286 27.601h7.921v191.876h-7.921z" fill="#afafaf"/></g><g><path d="m447.451 101.622-50.179-18.739-4.229 28.972 4.229 33.885 50.179-18.74c11.741-4.385 11.741-20.993 0-25.378z" fill="#ffd064"/><path d="m382.309 82.883h14.963v191.876h-14.963z" fill="#c2c2c2"/><path d="m382.309 82.883h7.921v191.876h-7.921z" fill="#afafaf"/></g><g><path d="m289.907 62.185h27.601v27.601h-27.601z" fill="#545058"/><path d="m319.06 67.284h-63.202v-10.198h63.202c2.816 0 5.099 2.283 5.099 5.099 0 2.816-2.283 5.099-5.099 5.099z" fill="#da4a54"/><path d="m194.492 62.185h27.601v27.601h-27.601z" fill="#545058" transform="matrix(-1 0 0 -1 416.585 151.971)"/><path d="m192.94 67.284h63.202v-10.198h-63.202c-2.816 0-5.099 2.283-5.099 5.099 0 2.816 2.283 5.099 5.099 5.099z" fill="#da4a54"/></g><path d="m176.171 142.66h159.659v272.684h-159.659z" fill="#dd636e"/><path d="m235.069 330.546h-17.957c-6.061 0-10.974-4.913-10.974-10.974 0-6.061 4.913-10.974 10.974-10.974h17.957c6.061 0 10.974 4.913 10.974 10.974 0 6.061-4.913 10.974-10.974 10.974z" fill="#da4a54"/><g><path d="m177.772 26.038-50.179-18.739-4.229 28.972 4.229 33.885 50.179-18.739c11.742-4.386 11.742-20.994 0-25.379z" fill="#ffd064"/><path d="m112.63 7.299h14.963v191.876h-14.963z" fill="#c2c2c2"/><path d="m112.63 7.299h7.921v191.876h-7.921z" fill="#afafaf"/></g><g fill="#da4a54"><path d="m257.017 306.935h-17.957c-6.061 0-10.974-4.913-10.974-10.974 0-6.061 4.913-10.974 10.974-10.974h17.957c6.061 0 10.974 4.913 10.974 10.974 0 6.061-4.913 10.974-10.974 10.974z"/><path d="m311.476 332.212h-17.957c-6.061 0-10.974-4.913-10.974-10.974 0-6.061 4.913-10.974 10.974-10.974h17.957c6.061 0 10.974 4.913 10.974 10.974 0 6.061-4.913 10.974-10.974 10.974z"/><path d="m176.171 142.66h159.659v24.275h-159.659z"/><path d="m176.171 142.66h39.5v272.684h-39.5z"/></g><g><path d="m125.627 81.881-50.179-18.739-4.229 28.972 4.229 33.885 50.179-18.739c11.742-4.385 11.742-20.994 0-25.379z" fill="#dd636e"/><path d="m60.485 63.142h14.963v191.876h-14.963z" fill="#c2c2c2"/><path d="m60.485 63.142h7.921v191.876h-7.921z" fill="#afafaf"/></g><path d="m242.243 19.384-74.053 104.345h175.62l-74.053-104.345c-6.724-9.475-20.79-9.475-27.514 0z" fill="#dd636e"/><path d="m256 12.28c-2.37 0-4.73 2.36-6.26 7.1l-33.67 104.35h-47.88l74.05-104.35c3.37-4.74 8.56-7.1 13.76-7.1z" fill="#da4a54"/><g><g><g fill="#d6d6d6"><path d="m219.853 354.029v39.674h-31.733v-39.674c0-8.766 7.105-15.871 15.867-15.871 4.383 0 8.351 1.776 11.223 4.648 2.867 2.872 4.643 6.84 4.643 11.223z"/><path d="m271.868 354.029v39.674h-31.734v-39.674c0-8.766 7.101-15.871 15.867-15.871 4.383 0 8.347 1.776 11.219 4.648s4.648 6.84 4.648 11.223z"/><path d="m323.882 354.029v39.674h-31.738v-39.674c0-8.766 7.105-15.871 15.871-15.871 4.383 0 8.347 1.776 11.219 4.648s4.648 6.84 4.648 11.223z"/></g><path d="m211.116 339.854c-5.183 2.607-8.74 7.975-8.74 14.175v39.674h-14.258v-39.674c0-8.762 7.105-15.867 15.867-15.867 2.567 0 4.988.61 7.131 1.692z" fill="#c2c2c2"/><path d="m263.131 339.854c-5.183 2.607-8.74 7.975-8.74 14.175v39.674h-14.258v-39.674c0-8.762 7.101-15.867 15.867-15.867 2.566 0 4.988.61 7.131 1.692z" fill="#c2c2c2"/><path d="m315.145 339.854c-5.183 2.607-8.74 7.975-8.74 14.175v39.674h-14.263v-39.674c0-8.762 7.105-15.867 15.871-15.867 2.568 0 4.989.61 7.132 1.692z" fill="#c2c2c2"/></g><path d="m336.48 368.96v130.13c-5.24 1.73-10.55 3.3-15.92 4.7-20.63 5.36-42.26 8.21-64.56 8.21s-43.93-2.85-64.56-8.21c-7.11-1.85-14.1-3.99-20.96-6.43v-128.4l22.51 1.82 6.5-1.82z" fill="#d6d6d6"/><path d="m199.49 368.96v136.78c-2.7-.61-5.38-1.26-8.05-1.95-7.11-1.85-14.1-3.99-20.96-6.43v-128.4z" fill="#c2c2c2"/><g><path d="m191.44 503.79c-49.72-12.92-93.57-40.41-126.71-77.64-6.02-6.76-11.69-13.85-16.96-21.22-13.18-18.38-23.97-38.58-31.95-60.15l8.55-71.28 4.88-40.72h129.7l4.88 40.72z" fill="#d6d6d6"/><path d="m65.1 232.78-9.77 182.19c-16.63-20.97-30.04-44.6-39.5-70.16l13.43-112.03z" fill="#c2c2c2"/><g><path d="m83.962 173.888v39.674h-31.733v-39.674c0-8.766 7.105-15.871 15.867-15.871 4.383 0 8.351 1.776 11.223 4.648 2.867 2.872 4.643 6.84 4.643 11.223z" fill="#d6d6d6"/><path d="m135.977 173.888v39.674h-31.734v-39.674c0-8.766 7.101-15.871 15.867-15.871 4.383 0 8.347 1.776 11.219 4.648s4.648 6.84 4.648 11.223z" fill="#d6d6d6"/><path d="m187.991 173.888v39.674h-31.738v-39.674c0-8.766 7.105-15.871 15.871-15.871 4.383 0 8.347 1.776 11.219 4.648s4.648 6.84 4.648 11.223z" fill="#d6d6d6"/><g fill="#c2c2c2"><path d="m31.95 213.559h-31.738v-39.672c0-8.764 7.105-15.869 15.869-15.869 8.764 0 15.869 7.105 15.869 15.869z"/><path d="m75.225 159.713c-5.183 2.607-8.74 7.975-8.74 14.175v39.674h-14.258v-39.674c0-8.762 7.105-15.867 15.867-15.867 2.567-.001 4.988.609 7.131 1.692z"/><path d="m127.24 159.713c-5.183 2.607-8.74 7.975-8.74 14.175v39.674h-14.258v-39.674c0-8.762 7.101-15.867 15.867-15.867 2.566-.001 4.988.609 7.131 1.692z"/><path d="m179.254 159.713c-5.183 2.607-8.74 7.975-8.74 14.175v39.674h-14.263v-39.674c0-8.762 7.105-15.867 15.871-15.867 2.568-.001 4.989.609 7.132 1.692z"/></g></g><g fill="#c2c2c2"><path d="m52.229 186.463h31.734v27.099h-31.734z"/><path d="m104.243 186.463h31.734v27.099h-31.734z"/><path d="m156.253 186.463h31.738v27.099h-31.738z"/><path d="m163.832 273.5c-.96.11-1.93.16-2.91.16h-133.64c-.98 0-1.95-.05-2.91-.16l4.88-40.72h129.7z"/></g><path d="m187.993 192.338h-187.781v36.027c0 14.953 12.121 27.074 27.074 27.074h133.633c14.953 0 27.074-12.121 27.074-27.074z" fill="#d6d6d6"/><path d="m93.266 255.442h-65.977c-14.952 0-27.077-12.124-27.077-27.077v-36.024h65.982v36.024c0 14.952 12.12 27.077 27.072 27.077z" fill="#c2c2c2"/></g><path d="m124.333 330.213h-17.957c-6.061 0-10.974-4.913-10.974-10.974 0-6.061 4.913-10.974 10.974-10.974h17.957c6.061 0 10.974 4.913 10.974 10.974 0 6.061-4.913 10.974-10.974 10.974z" fill="#c2c2c2"/><g><path d="m496.18 344.78c-9.11 24.64-21.9 47.49-37.72 67.89-5.51 7.13-11.4 13.95-17.64 20.45-32.28 33.69-73.69 58.57-120.26 70.67l27.61-230.29 4.88-40.72h129.7l4.88 40.72z" fill="#d6d6d6"/><path d="m388.89 232.78-13.39 249.68c-17.24 9.12-35.65 16.32-54.94 21.33l32.49-271.01z" fill="#c2c2c2"/><g><path d="m407.758 173.888v39.674h-31.734v-39.674c0-8.766 7.105-15.871 15.867-15.871 4.383 0 8.351 1.776 11.223 4.648 2.867 2.872 4.644 6.84 4.644 11.223z" fill="#d6d6d6"/><path d="m459.772 173.888v39.674h-31.734v-39.674c0-8.766 7.101-15.871 15.867-15.871 4.383 0 8.347 1.776 11.219 4.648s4.648 6.84 4.648 11.223z" fill="#d6d6d6"/><path d="m511.787 173.888v39.674h-31.738v-39.674c0-8.766 7.105-15.871 15.871-15.871 4.383 0 8.347 1.776 11.219 4.648 2.871 2.872 4.648 6.84 4.648 11.223z" fill="#d6d6d6"/><g fill="#c2c2c2"><path d="m355.745 213.559h-31.738v-39.672c0-8.764 7.105-15.869 15.869-15.869 8.764 0 15.869 7.105 15.869 15.869z"/><path d="m399.02 159.713c-5.183 2.607-8.74 7.975-8.74 14.175v39.674h-14.259v-39.674c0-8.762 7.105-15.867 15.867-15.867 2.568-.001 4.989.609 7.132 1.692z"/><path d="m451.035 159.713c-5.183 2.607-8.74 7.975-8.74 14.175v39.674h-14.258v-39.674c0-8.762 7.101-15.867 15.867-15.867 2.567-.001 4.988.609 7.131 1.692z"/><path d="m503.05 159.713c-5.183 2.607-8.74 7.975-8.74 14.175v39.674h-14.263v-39.674c0-8.762 7.105-15.867 15.871-15.867 2.567-.001 4.989.609 7.132 1.692z"/></g></g><g fill="#c2c2c2"><path d="m376.024 186.463h31.734v27.099h-31.734z"/><path d="m428.039 186.463h31.734v27.099h-31.734z"/><path d="m480.049 186.463h31.738v27.099h-31.738z"/><path d="m487.628 273.5c-.96.11-1.93.16-2.91.16h-133.64c-.98 0-1.95-.05-2.91-.16l4.88-40.72h129.7z"/></g><path d="m511.788 192.338h-187.78v36.027c0 14.953 12.121 27.074 27.074 27.074h133.633c14.953 0 27.074-12.121 27.074-27.074v-36.027z" fill="#d6d6d6"/><path d="m417.061 255.442h-65.977c-14.952 0-27.077-12.124-27.077-27.077v-36.024h65.982v36.024c0 14.952 12.12 27.077 27.072 27.077z" fill="#c2c2c2"/></g><path d="m94.102 288.097c-12.176 0-22.046 9.87-22.046 22.046v42.631h44.092v-42.631c0-12.176-9.87-22.046-22.046-22.046z" fill="#545058"/><path d="m417.898 288.097c-12.176 0-22.046 9.87-22.046 22.046v42.631h44.092v-42.631c-.001-12.176-9.871-22.046-22.046-22.046z" fill="#545058"/><g fill="#c2c2c2"><path d="m422.342 401.865h-17.957c-6.061 0-10.974-4.913-10.974-10.974 0-6.061 4.913-10.974 10.974-10.974h17.957c6.061 0 10.974 4.913 10.974 10.974 0 6.061-4.913 10.974-10.974 10.974z"/><path d="m458.46 412.67c-5.51 7.13-11.4 13.95-17.64 20.45h-5.84c-6.06 0-10.98-4.91-10.98-10.97 0-3.03 1.23-5.77 3.22-7.76 1.98-1.98 4.73-3.21 7.76-3.21h17.96c2.01 0 3.9.54 5.52 1.49z"/><path d="m475.549 325.381h-17.957c-6.061 0-10.974-4.913-10.974-10.974 0-6.061 4.913-10.974 10.974-10.974h17.957c6.061 0 10.974 4.913 10.974 10.974-.001 6.061-4.914 10.974-10.974 10.974z"/><path d="m138.965 404.702h-17.957c-6.061 0-10.974-4.913-10.974-10.974 0-6.061 4.913-10.974 10.974-10.974h17.957c6.061 0 10.974 4.913 10.974 10.974 0 6.061-4.913 10.974-10.974 10.974z"/><path d="m165.232 224.535h-17.957c-6.061 0-10.974-4.913-10.974-10.974 0-6.061 4.913-10.974 10.974-10.974h17.957c6.061 0 10.974 4.913 10.974 10.974 0 6.061-4.913 10.974-10.974 10.974z"/><path d="m130.007 247.761h-17.957c-6.061 0-10.974-4.913-10.974-10.974 0-6.061 4.913-10.974 10.974-10.974h17.957c6.061 0 10.974 4.913 10.974 10.974 0 6.061-4.913 10.974-10.974 10.974z"/><path d="m428.261 219.489h-17.957c-6.061 0-10.974-4.913-10.974-10.974 0-6.061 4.913-10.974 10.974-10.974h17.957c6.061 0 10.974 4.913 10.974 10.974 0 6.061-4.913 10.974-10.974 10.974z"/><path d="m466.054 248.011h-17.957c-6.061 0-10.974-4.913-10.974-10.974 0-6.061 4.913-10.974 10.974-10.974h17.957c6.061 0 10.974 4.913 10.974 10.974 0 6.06-4.913 10.974-10.974 10.974z"/><path d="m80.62 415.17c0 3.03-1.23 5.78-3.21 7.77-1.99 1.98-4.73 3.21-7.76 3.21h-4.92c-6.02-6.76-11.69-13.85-16.96-21.22 1.22-.47 2.54-.73 3.92-.73h17.96c6.06 0 10.97 4.91 10.97 10.97z"/><path d="m156.59 436.294h-17.957c-6.061 0-10.974-4.913-10.974-10.974 0-6.061 4.913-10.974 10.974-10.974h17.957c6.061 0 10.974 4.913 10.974 10.974 0 6.061-4.914 10.974-10.974 10.974z"/><path d="m247.89 452.736h-17.957c-6.061 0-10.974-4.913-10.974-10.974 0-6.061 4.913-10.974 10.974-10.974h17.957c6.061 0 10.974 4.913 10.974 10.974 0 6.061-4.913 10.974-10.974 10.974z"/><path d="m267.851 425.652h-17.957c-6.061 0-10.974-4.913-10.974-10.974 0-6.061 4.913-10.974 10.974-10.974h17.957c6.061 0 10.974 4.913 10.974 10.974 0 6.061-4.914 10.974-10.974 10.974z"/><path d="m305.568 469.548h-17.957c-6.061 0-10.974-4.913-10.974-10.974 0-6.061 4.913-10.974 10.974-10.974h17.957c6.061 0 10.974 4.913 10.974 10.974 0 6.061-4.913 10.974-10.974 10.974z"/></g></g><path d="m335.728 110.071h-159.456c-9.422 0-17.061 7.638-17.061 17.061v8.776c0 9.422 7.638 17.061 17.061 17.061h159.456c9.422 0 17.061-7.638 17.061-17.061v-8.776c0-9.423-7.639-17.061-17.061-17.061z" fill="#f9f6f9"/><path d="m227.151 152.972h-50.88c-9.42 0-17.06-7.64-17.06-17.06v-8.78c0-9.42 7.64-17.06 17.06-17.06h50.88c-9.42 0-17.06 7.64-17.06 17.06v8.78c0 9.42 7.64 17.06 17.06 17.06z" fill="#dddaec"/><path d="m295.592 209.168h-17.957c-6.061 0-10.974-4.913-10.974-10.974 0-6.061 4.913-10.974 10.974-10.974h17.957c6.061 0 10.974 4.913 10.974 10.974 0 6.061-4.913 10.974-10.974 10.974z" fill="#da4a54"/><g fill="#545058"><path d="m177.76 143.161c-3.857 0-6.983-3.127-6.983-6.983v-9.311c0-3.857 3.127-6.983 6.983-6.983 3.857 0 6.983 3.127 6.983 6.983v9.311c0 3.856-3.126 6.983-6.983 6.983z"/><path d="m216.88 143.161c-3.857 0-6.983-3.127-6.983-6.983v-9.311c0-3.857 3.127-6.983 6.983-6.983 3.857 0 6.983 3.127 6.983 6.983v9.311c0 3.856-3.126 6.983-6.983 6.983z"/><path d="m256 143.161c-3.857 0-6.983-3.127-6.983-6.983v-9.311c0-3.857 3.127-6.983 6.983-6.983 3.857 0 6.983 3.127 6.983 6.983v9.311c0 3.856-3.126 6.983-6.983 6.983z"/><path d="m295.12 143.161c-3.857 0-6.983-3.127-6.983-6.983v-9.311c0-3.857 3.127-6.983 6.983-6.983 3.857 0 6.983 3.127 6.983 6.983v9.311c0 3.856-3.126 6.983-6.983 6.983z"/><path d="m334.24 143.161c-3.857 0-6.983-3.127-6.983-6.983v-9.311c0-3.857 3.127-6.983 6.983-6.983 3.857 0 6.983 3.127 6.983 6.983v9.311c0 3.856-3.126 6.983-6.983 6.983z"/></g><circle cx="256" cy="73.048" fill="#545058" r="15.962"/><path d="m256 183.825c-12.176 0-22.046 9.87-22.046 22.046v42.631h44.092v-42.631c0-12.175-9.87-22.046-22.046-22.046z" fill="#545058"/></g></svg>