<svg id="Capa_1" enable-background="new 0 0 512 512" height="512" viewBox="0 0 512 512" width="512" xmlns="http://www.w3.org/2000/svg"><g><g><g><g><g><g><g><circle cx="256" cy="256" fill="#7584f2" r="256"/></g></g></g></g></g></g><path d="m512 256c0-23.271-3.105-45.816-8.924-67.245l-114.907-114.908-20.553 26.161-40.009-40.008-203.776 362.556 85.132 85.132c15.247 2.832 30.969 4.312 47.037 4.312 141.385 0 256-114.615 256-256z" fill="#4253ce"/><g><path d="m123.831 73.847h264.338v348.708h-264.338z" fill="#ffce00"/></g><g><path d="m255.818 73.847h132.351v348.708h-132.351z" fill="#fdba12"/></g><g><path d="m155.381 102.996h201.238v287.082h-201.238z" fill="#fff"/></g><g><path d="m255.818 102.996h100.801v287.082h-100.801z" fill="#e9edf5"/></g><g><path d="m184.393 60h77.607v69.563h-77.607z" fill="#e9edf5"/></g><g><path d="m255.818 60h71.789v69.562h-71.789z" fill="#cdd2e1"/></g><g><g><path d="m181.568 163.819h36.172v30h-36.172z" fill="#e9edf5"/></g><g><path d="m238.609 163.819h91.822v30h-91.822z" fill="#e9edf5"/></g><g><path d="m255.818 163.819h74.614v30h-74.614z" fill="#cdd2e1"/></g></g><g><g><path d="m181.568 215.991h36.172v30h-36.172z" fill="#e9edf5"/></g><g><path d="m238.609 215.991h91.822v30h-91.822z" fill="#e9edf5"/></g><g><path d="m255.818 215.991h74.614v30h-74.614z" fill="#cdd2e1"/></g></g><g><g><path d="m181.568 268.163h36.172v30h-36.172z" fill="#e9edf5"/></g><g><path d="m238.609 268.163h91.822v30h-91.822z" fill="#e9edf5"/></g><g><path d="m255.818 268.163h74.614v30h-74.614z" fill="#cdd2e1"/></g></g><g><g><path d="m181.568 320.335h36.172v30h-36.172z" fill="#e9edf5"/></g><g><path d="m238.609 320.335h91.822v30h-91.822z" fill="#e9edf5"/></g><g><path d="m255.818 320.335h74.614v30h-74.614z" fill="#cdd2e1"/></g></g></g></svg>