<svg id="Layer_1" enable-background="new 0 0 505.878 505.878" height="512" viewBox="0 0 505.878 505.878" width="512" xmlns="http://www.w3.org/2000/svg"><g><g><path d="m505.878 252.939c0 48.436-13.614 93.692-37.225 132.15-44.485 72.46-124.456 78.96-215.715 78.96-105.686 0-228.137-73.534-228.137-213.228 0-85.919 18.037-159.714 83.52-205.428 40.986-28.611 90.842-45.393 144.618-45.393 139.695 0 252.939 113.245 252.939 252.939z" fill="#ff640a"/></g><path d="m436.995 384.146-44.577-44.577c-14.754-14.753-38.615-14.69-53.305 0l-16.605 16.605-37.615-37.614-8.986 8.986-16.549-16.549-4.64-4.64 29.966-29.966c2.482-2.482 6.505-2.482 8.986 0 2.482 2.482 6.505 2.481 8.986 0l16.516-16.516c9.171-9.171 24.04-9.171 33.21 0 14.72 14.72 38.585 14.72 53.305 0l87.185-87.185c-3.01-9.003-6.52-17.776-10.483-26.297-.238-.042-.326-.057-.564-.099l-94.859 94.859c-4.381 4.381-11.483 4.381-15.863 0l-17.66-17.66c-4.38-4.38-4.38-11.482 0-15.862l94.859-94.859c5.199-5.199 5.106-13.615 0-18.721-5.164-5.164-13.544-5.177-18.722 0l-94.859 94.859c-4.38 4.38-11.482 4.38-15.862 0l-17.66-17.66c-4.38-4.38-4.38-11.482 0-15.862l94.859-94.859c3.483-3.483 4.947-8.839 2.988-14.08-4.177-2.961-8.456-5.788-12.816-8.497-3.436.121-6.539 1.501-8.893 3.855l-94.859 94.859c-14.654 14.654-14.737 38.569 0 53.305l16.605 16.605-37.614 37.614 8.986 8.986-16.549 16.549-17.91 17.91-89.844-89.844 8.986-8.986-32.116-32.116s-33.019-97.5-40.701-90.478c-18.185 16.625-33.934 35.872-46.648 57.142-2.329 3.896 3.417 10.527 1.296 14.555-2.571 4.882-12.961 7.191-15.215 12.254-13.983 31.403-21.754 66.183-21.754 102.777 0 60.535 21.276 116.093 56.744 159.632s.001.001.001.001c3.634 4.461 7.419 8.793 11.344 12.993.04.043.08.086.119.128 11.187 11.958 23.518 22.828 36.825 32.437 4.252 3.07 8.601 6.012 13.046 8.819.032.022.064.044.095.066.969.726 1.938 1.448 3.02 1.991 1.308.656 2.536 1.41 3.78 2.141 37.542 22.064 81.271 34.731 127.965 34.731 27.083 0 53.262-4.276 77.854-12.226 50.485-16.322 108.987-106.721 106.202-109.506zm-314.188-163.012c2.553-2.553 6.692-2.553 9.245 0l1.923 1.923 83.299 83.298-47.647 47.647c-36.369-30.646-63.984-71.349-78.543-117.828-4.278-13.659 12.065-24.305 22.751-14.783 2.587 2.306 6.522 2.193 8.972-.257zm90.044 127.088 18.651-18.651c2.481-2.482 6.505-2.482 8.986 0l.147.147 12.056 12.056c2.482 2.482 2.482 6.505 0 8.986-2.482 2.482-2.482 6.505 0 8.986l33.121 33.121-13.378 13.378c-18.675-4.55-36.541-11.166-53.337-19.599-14.635-7.349-17.827-26.843-6.246-38.424z" fill="#e04955"/><g><g><g><g><path d="m175.23 157.133h26.476v141.967h-26.476z" fill="#a55a3c" transform="matrix(.707 -.707 .707 .707 -106.102 200.081)"/></g></g><g><g><path d="m120.745 164.898h26.476v17.467h-26.476z" fill="#783c28" transform="matrix(.707 -.707 .707 .707 -83.533 145.596)"/></g></g><g><g><path d="m244.65 268.645h26.476v57.782h-26.476z" fill="#783c28" transform="matrix(.707 -.707 .707 .707 -134.856 269.5)"/></g></g><g><g><path d="m275.65 287.183h34.624v66.433h-34.624z" fill="#fcb54c" transform="matrix(.707 -.707 .707 .707 -140.75 300.998)"/></g></g><g><g><path d="m265.545 304.479h20.242v66.433h-20.242z" fill="#ff640a" transform="matrix(.707 -.707 .707 .707 -158.046 293.834)"/></g></g><path d="m135.84 171.035-43.525-39.072-56.629-8.604c-5.151 8.618-9.805 17.565-13.92 26.808l61.385 9.327 32.115 32.115z" fill="#ffe046"/><path d="m92.716 134.607 39.776 39.776 19.468-19.468-32.116-32.116-11.513-77.391c-9.125 6.37-17.815 13.319-26.006 20.807z" fill="#fcb54c"/></g><g><path d="m468.644 385.083-79.404-66.695c-14.72-14.72-38.585-17.897-53.305-3.177l-63.396 64.384c-14.72 14.72-14.595 31.318.125 46.038l58.128 68.018c57.866-18.703 106.61-57.679 137.852-108.568z" fill="#ffe046"/></g><g><path d="m468.371 384.81-79.13-79.13c-14.72-14.72-38.585-14.72-53.305 0l-69.904 69.904c-14.72 14.72-14.72 38.585 0 53.305l64.762 64.762c6.32-2.042 12.53-4.325 18.621-6.84l-70.652-70.652c-7.689-7.689-7.689-20.155 0-27.844l13.544-13.544c7.689-7.689 20.155-7.689 27.844 0l40.744 40.744c3.515 3.515 9.215 3.515 12.731 0 3.515-3.515 3.515-9.215 0-12.731l-40.746-40.744c-7.689-7.689-7.689-20.155 0-27.844l15.786-15.786c7.689-7.689 20.155-7.689 27.844 0l79.13 79.13c.981.981 2.135 1.678 3.361 2.112 3.374-4.731 6.583-9.586 9.632-14.552-.088-.096-.169-.197-.262-.29z" fill="#fcb54c"/></g></g><g><g><g><path d="m128.834 285.627h155.172v26.476h-155.172z" fill="#a55a3c" transform="matrix(.707 -.707 .707 .707 -150.87 233.497)"/></g></g><g><g><path d="m138.519 344.794h17.467v26.476h-17.467z" fill="#783c28" transform="matrix(.707 -.707 .707 .707 -210.038 208.989)"/></g></g><g><g><path d="m253.566 216.209h44.544v26.476h-44.544z" fill="#783c28" transform="matrix(.707 -.707 .707 .707 -81.453 262.25)"/></g></g><g><g><path d="m273.029 193.987h66.433v34.584h-66.433z" fill="#c2bdc5" transform="matrix(.707 -.707 .707 .707 -59.7 278.43)"/></g></g><g><g><path d="m255.764 183.829h66.433v20.369h-66.433z" fill="#b3adb6" transform="matrix(.707 -.707 .707 .707 -52.548 261.165)"/></g></g><path d="m497.369 112.404-108.928 100.772c-4.373 4.373-16.141-1.54-20.515-5.914l-17.66-17.66c-4.38-4.38-4.38-11.482 0-15.862l94.859-94.859c5.17-5.17 5.17-13.552 0-18.721l-109.151 97.936c-4.38 4.38-15.912 1.304-20.292-3.076l-17.66-17.66c-4.38-4.38-4.38-11.482 0-15.862l94.859-94.859c5.17-5.17 5.17-13.552 0-18.721l-107.974 100.608c-14.696 14.696-20.303 32.857-5.606 47.554l69.904 69.904c14.696 14.696 38.609 14.697 53.306.001l94.859-94.859c5.169-5.171 5.169-13.553-.001-18.722z" fill="#e1dee2"/><g><g><path d="m396.519 219.994 94.859-94.859c2.708-2.708 6.297-3.983 9.845-3.854-.117-3.225-1.393-6.415-3.854-8.877-5.17-5.17-13.552-5.17-18.721 0l-94.859 94.859c-4.373 4.373-11.489 4.373-15.863-.001l12.731 12.731c4.373 4.374 11.489 4.374 15.862.001z" fill="#c2bdc5"/></g><g><path d="m344.275 167.75 94.859-94.859c2.708-2.708 6.297-3.983 9.845-3.854-.117-3.225-1.393-6.415-3.854-8.877-5.17-5.17-13.552-5.17-18.721 0l-94.859 94.859c-4.38 4.38-11.482 4.38-15.862 0l12.731 12.731c4.379 4.38 11.481 4.38 15.861 0z" fill="#c2bdc5"/></g><g><path d="m292.031 115.506 94.859-94.859c2.708-2.708 6.297-3.983 9.845-3.854-.117-3.225-1.393-6.415-3.854-8.877-5.17-5.17-13.552-5.17-18.721 0l-94.859 94.859c-14.696 14.696-14.696 38.609 0 53.305l12.731 12.731c-14.697-14.697-14.697-38.609-.001-53.305z" fill="#c2bdc5"/></g></g><path d="m144.608 356.128-39.024 43.573-11.337 74.619-63.283-63.283 10.356-1.573c-.01-.216-.035-.43-.035-.647v-28.27l-18.466 2.805c-9.985 1.517-18.145 8.421-21.296 18.016-3.151 9.596-.672 19.993 6.469 27.134l68.791 68.79c5.093 5.093 11.84 7.814 18.773 7.814 2.789 0 5.609-.441 8.362-1.345 9.596-3.151 16.498-11.311 18.015-21.296l11.183-73.602 32.115-32.115z" fill="#ffe046"/><g><path d="m128.536 340.055-32.116 32.116-59.466 9.034c-7.807 1.186-13.174 8.476-11.988 16.283s8.476 13.174 16.283 11.988l66.979-10.176 39.776-39.776z" fill="#fcb54c"/></g></g></g></svg>