<svg id="Layer_1" enable-background="new 0 0 511.262 511.262" height="512" viewBox="0 0 511.262 511.262" width="512" xmlns="http://www.w3.org/2000/svg"><g><path d="m272.426 16.795c-22.34 0-43.964 3.067-64.473 8.803l.475 106.143 282.412 220.673c13.129-29.584 20.423-62.332 20.423-96.783-.001-131.906-106.931-238.836-238.837-238.836z" fill="#94b938"/><path d="m488.578 170.878-89-87.277c-1.402-1.375-3.288-2.146-5.251-2.146h-153.359c-14.252 0-22.725-16.089-14.493-27.722.206-.291.412-.581.62-.871 9.726-13.616-3.029-31.777-19.149-27.29-101.689 28.3-174.356 121.707-174.356 230.06 0 54.734 18.62 107.269 52.539 149.44 16.383 20.399 29.769 30.587 36.804 36.814 40.924 32.889 92.905 52.582 149.493 52.582 56.583 0 108.553-19.696 149.474-52.582h.019c4.616-3.709 9.737-8.176 13.722-11.908-.014.001-.028.001-.041.002 23.237-21.755 42.139-48.08 55.227-77.572v-176.176c-.001-2.014-.811-3.944-2.249-5.354z" fill="#54a770"/><g><g><path d="m463.301 444.897h-371.137v-345.431h282.137l89 87.277z" fill="#93dcfc"/></g><g><path d="m467.202 354.883v-23.265h-189.707c-22.943 0-41.542-18.599-41.542-41.542v-22.959h229.049v-23.265h-187.507c-22.943 0-41.542-18.599-41.542-41.542v-15.85h-143.789v258.436h371.136v-48.471h-185.805c-22.943 0-41.542-18.599-41.542-41.542z" fill="#81b8fd"/></g><g><path d="m435.596 159.575h-210.816c-9.12 0-17.824-3.813-24.006-10.518l-9.238-10.017h210.601v-12.85h-208.143c-9.12 0-17.824-3.813-24.006-10.518l-14.945-16.207h-62.879v84.583h368.389z" fill="#81b8fd"/></g><g><path d="m463.301 452.397h-371.136c-4.142 0-7.5-3.357-7.5-7.5v-345.431c0-4.143 3.358-7.5 7.5-7.5h282.136c1.964 0 3.849.771 5.251 2.146l89 87.277c1.438 1.41 2.249 3.34 2.249 5.354v258.153c0 4.143-3.358 7.501-7.5 7.501zm-363.636-15h356.136v-247.504l-84.564-82.927h-271.572z" fill="#fff"/></g><g><path d="m176.829 444.897h-169.329v-260.83l84.664-84.601 84.665 84.601z" fill="#ddf4fe"/></g><g><path d="m280.146 444.923h-15v-257.722l-82.466-82.403 10.603-10.611 84.665 84.601c1.408 1.407 2.199 3.315 2.199 5.306v260.829z" fill="#fff"/></g><g><path d="m373.146 444.923h-15v-257.722l-82.466-82.403 10.603-10.611 84.665 84.601c1.408 1.407 2.199 3.315 2.199 5.306v260.829z" fill="#fff"/></g><g><path d="m208.428 176.568h254.873v15h-254.873z" fill="#fff"/></g><g><path d="m131.09 382.439 10.68-10.872c2.302-2.343 2.503-6.161.23-8.532-2.353-2.454-6.25-2.463-8.615-.057l-.117.119c-7.137 7.265-19.492 2.212-19.492-7.972 0-8.457 4.9-16.111 12.531-19.757 14.485-6.922 24.493-21.704 24.493-38.829 0-17.699-23.87-45.273-36.05-58.192-3.784-4.013-10.153-4.023-13.937-.01-2.272 2.409-4.95 5.329-7.804 8.6-5.801 6.647-16.751 2.513-16.751-6.31 0-20.381 16.522-36.903 36.903-36.903h58.777v-19.658h-95.68v-37.812c0-6.17 2.452-12.087 6.817-16.448l19.727-19.713-10.638-10.627-84.664 84.601v260.83h169.329v-47.449h-39.443c-7.824 0-11.779-9.427-6.296-15.009zm-29.315-43.301v41.816l-9.529-9.511c6.491-10.534 5.179-24.515-3.952-33.646-2.655-2.655-7.006-4.606-12.037-6.044v-5.948c6.571 7.07 15.488 11.932 25.518 13.333z" fill="#93dcfc"/></g><g><path d="m212.301 191.568h-204.801c-4.142 0-7.5-3.357-7.5-7.5s3.358-7.5 7.5-7.5h204.801c4.142 0 7.5 3.357 7.5 7.5s-3.358 7.5-7.5 7.5z" fill="#ddf4fe"/></g><g><path d="m136.437 134.433h279.084v15h-279.084z" fill="#fff"/></g><g><path d="m176.829 262.042h286.472v15h-286.472z" fill="#fff"/></g><g><path d="m176.829 348.042h286.472v15h-286.472z" fill="#fff"/></g><g><path d="m176.829 452.397h-169.329c-4.142 0-7.5-3.357-7.5-7.5v-260.829c0-1.99.791-3.898 2.199-5.306l84.664-84.602c2.928-2.925 7.674-2.925 10.603 0l84.664 84.602c1.408 1.407 2.199 3.315 2.199 5.306v260.829c0 4.142-3.358 7.5-7.5 7.5zm-161.829-15h154.329v-250.221l-77.164-77.107-77.165 77.107z" fill="#ddf4fe"/></g><g><path d="m168.303 149.433h-29.504c-4.142 0-7.5-3.357-7.5-7.5s3.358-7.5 7.5-7.5h29.504c4.142 0 7.5 3.357 7.5 7.5s-3.358 7.5-7.5 7.5z" fill="#ddf4fe"/></g><g><path d="m120.744 106.992h-25.101c-4.142 0-7.5-3.357-7.5-7.5s3.358-7.5 7.5-7.5h25.101c4.142 0 7.5 3.357 7.5 7.5s-3.358 7.5-7.5 7.5z" fill="#ddf4fe"/></g><g><path d="m201.331 277.042h-22.458c-4.142 0-7.5-3.357-7.5-7.5s3.358-7.5 7.5-7.5h22.458c4.142 0 7.5 3.357 7.5 7.5s-3.358 7.5-7.5 7.5z" fill="#ddf4fe"/></g><g><path d="m199.569 363.042h-20.697c-4.142 0-7.5-3.357-7.5-7.5s3.358-7.5 7.5-7.5h20.697c4.142 0 7.5 3.357 7.5 7.5s-3.358 7.5-7.5 7.5z" fill="#ddf4fe"/></g><g><path d="m168.303 452.423c-4.141 0-7.498-3.355-7.5-7.496-.002-4.143 3.354-7.502 7.497-7.504l56.161-.026h.003c4.141 0 7.498 3.355 7.5 7.496.002 4.143-3.354 7.502-7.497 7.504l-56.161.026s-.002 0-.003 0z" fill="#ddf4fe"/></g><g><g><g><path d="m37.639 376.451c-7.952-7.952-9.615-31.067-9.947-42.34-.103-3.501 2.759-6.364 6.261-6.261 11.274.331 34.389 1.995 42.34 9.947 10.674 10.674 10.674 27.98 0 38.654s-27.98 10.674-38.654 0z" fill="#a0c83d"/></g></g><g><g><path d="m52.752 296.54c0-17.701 23.876-45.281 36.055-58.197 3.783-4.012 10.154-4.012 13.937 0 12.179 12.917 36.055 40.496 36.055 58.197 0 23.761-19.262 43.024-43.024 43.024s-43.023-19.263-43.023-43.024z" fill="#a0c83d"/></g></g><g><g><path d="m95.775 417.076c-3.313 0-6-2.687-6-6v-134.02c0-3.313 2.687-6 6-6s6 2.687 6 6v134.02c0 3.314-2.686 6-6 6z" fill="#489160"/></g></g><g><g><path d="m96.904 405.025-54.496-54.393c-2.345-2.342-2.349-6.141-.008-8.485 2.341-2.347 6.14-2.35 8.485-.009l45.935 45.848 24.564-25.007c2.322-2.362 6.121-2.396 8.485-.075 2.364 2.322 2.398 6.121.076 8.485z" fill="#489160"/></g></g></g></g></g></svg>