<svg id="Layer_1" enable-background="new 0 0 510.577 510.577" height="512" viewBox="0 0 510.577 510.577" width="512"
     xmlns="http://www.w3.org/2000/svg">
    <g>
        <path d="m494.125 238.837c0 77.013-36.451 145.513-93.041 189.188-40.336 31.13-86.609 16.197-141.502 16.197-131.906 0-223.787-79.914-223.787-211.819 0-41.221-8.901-73.568 9.483-107.409 40.445-74.453 119.325-124.994 210.011-124.994 131.905 0 238.836 106.931 238.836 238.837z"
              fill="#ff640a"/>
        <path d="m367.801 238.837h24.643c5.202 0 9.419-4.217 9.419-9.419v-22.256c0-5.202 4.217-9.419 9.419-9.419h37.293c8.077 0 15.027-6.207 15.407-14.275.406-8.614-6.458-15.725-14.983-15.725h-44.718c-1.335 0-2.418-1.083-2.418-2.418 0-1.335-1.083-2.418-2.418-2.418h-96.884c-7.883 0-14.273-6.39-14.273-14.273 0-8.09 4.481-15.44 11.546-19.383 12.645-7.057 22.062-18.946 25.963-33.011 2.685-9.679 11.297-16.512 21.342-16.512h.315c5.326 0 9.977-4.02 10.321-9.335.377-5.824-4.236-10.665-9.978-10.665h-7.604c-6.854 0-12.409-5.556-12.409-12.409-.028-.622.055-1.87-.064-3.612-.168-2.474 1.759-4.587 4.238-4.587 2.089 0 3.955-1.527 4.153-3.607.228-2.386-1.642-4.393-3.981-4.393-2.268 0-3.204-2.907-1.363-4.23l7.418-5.332c1.551-1.115 2.203-3.179 1.418-4.919-1.08-2.393-3.986-3.086-6.001-1.639l-7.557 5.432c-3.844 2.764-8.885 3.003-13.093.834-3.743-1.929-7.988-3.019-12.489-3.019h-54.349c-15.089 0-27.321 12.232-27.321 27.321v14.161h-19.652c-5.516 0-10.266 4.311-10.359 9.826-.09 5.289 3.928 9.654 9.072 10.127l-2.028 2.222c-2.34 2.563-.5 6.697 2.953 6.697 2.684 0 3.529-2.273 5.591-4.191l-.54 4.11c-.315 2.393 1.546 4.521 3.971 4.521 1.978 0 3.696-1.466 3.961-3.479l1.292-9.833h5.788c-.891 25.545 15.874 47.58 39.446 54.323v33.691h-11.69c-.34-1.573-.558-3.188-.632-4.836h-101.253v4.836c-8.961.007-16.224.009-22.118.008-15.414-.003-27.569-13.031-26.604-28.415.023-.364.046-.728.071-1.093 1.906-28.368-36.167-39.685-49.926-14.805-19.324 34.943-30.144 75.243-29.668 118.11 1.462 131.851 110.607 238.063 242.452 236.098 53.492-.797 102.717-19.183 142.158-49.63 18.779-14.496 5.228-44.468-18.001-39.652-.48.1-.961.198-1.443.294-13.892 2.79-26.874-7.802-26.874-21.971v-114.808c-.001-7.203 5.838-13.042 13.041-13.042zm-175.983 52.662c0 22.053-27.634 32.035-41.68 15.033-18.832-22.795-33.514-49.145-42.89-77.893-4.97-15.238 6.35-30.897 22.378-30.897h15.087l47.104 41.094v52.663z"
              fill="#e04955"/>
        <g>
            <g>
                <g>
                    <path d="m240.288 143.555v73.847c0 8.284 6.716 15 15 15s15-6.716 15-15v-73.847z" fill="#fcb54c"/>
                </g>
            </g>
            <g>
                <path d="m235.288 422.747v67.83c0 11.046 8.954 20 20 20s20-8.954 20-20v-67.83z" fill="#fcb54c"/>
            </g>
            <g>
                <path d="m275.288 425.577v-236.835c0-11.046-8.954-20-20-20s-20 8.954-20 20v236.835z" fill="#783c28"/>
            </g>
            <g fill="#fcb54c">
                <path d="m117.664 167.742h-38.086c-8.284 0-15 6.716-15 15s6.716 15 15 15h38.086z"/>
                <path d="m167.255 167.742h175.877v30h-175.877z"/>
                <path d="m430.999 167.742h-38.277v30h38.277c8.284 0 15-6.716 15-15s-6.715-15-15-15z"/>
            </g>
            <g>
                <path d="m116.301 167.742h34.391v30h-34.391z" fill="#fc9842"/>
            </g>
            <g>
                <path d="m325.639 167.742h68.646v30h-68.646z" fill="#fc9842"/>
            </g>
            <g>
                <path d="m255.288 96.677c-8.284 0-15 6.716-15 15v33.369c4.767 1.363 9.795 2.108 15 2.108s10.233-.745 15-2.108v-33.369c0-8.284-6.715-15-15-15z"
                      fill="#fc9842"/>
            </g>
            <g>
                <path d="m235.071 85.867v29.957c0 11.101 8.902 20.287 20.003 20.33h.214c28.679 0 52.167-22.159 54.318-50.287z"
                      fill="#fcb54c"/>
            </g>
            <g>
                <path d="m309.784 81.659c0-25.695-17.789-47.223-41.719-52.974-.029-.007-.059-.013-.089-.021-.978-.233-1.967-.438-2.964-.618-.245-.045-.49-.09-.737-.132-.428-.071-.858-.138-1.29-.199-.487-.07-.978-.13-1.469-.187-.376-.043-.752-.084-1.131-.119-.634-.06-1.272-.108-1.912-.145-.244-.014-.488-.027-.732-.038-.813-.037-1.629-.062-2.452-.062-30.097 0-54.495 24.398-54.495 54.495 0 1.035.035 2.061.092 3.081.002.037.006.074.008.111 1.654 28.61 25.37 51.302 54.395 51.302 5.023 0 9.881-.693 14.5-1.966-12.715-3.502-23.566-11.493-30.742-22.162-6.943-10.322.38-24.21 12.819-24.21h57.563c.226-2.021.355-4.073.355-6.156z"
                      fill="#fc9842"/>
            </g>
            <g>
                <path d="m195.744 225.634c13.391-.6 24.795 11.825 24.795 24.795v146.947h116.22v-158.54h47.104v-75.93h-103.698c.631 14.095-12.448 26.1-26.1 26.1-14.632 0-25.466-11.959-26.1-26.1h-51.023v71.581c4.592-5.224 11.378-8.521 18.802-8.853z"
                      fill="#62c389"/>
            </g>
            <g>
                <g>
                    <path d="m249.333 394.851c-13.008 0-23.552-10.545-23.552-23.552v-127.388c0-13.008-10.545-23.552-23.552-23.552-13.008 0-23.552-10.545-23.552-23.552v-33.901h-51.963v75.93h47.104v174.492h162.941v-18.477z"
                          fill="#199a8e"/>
                </g>
            </g>
            <g>
                <path d="m282.463 18.246h-26.458c-12.777 0-23.135 10.358-23.135 23.135v33.342h76.914v-29.156c0-15.089-12.232-27.321-27.321-27.321z"
                      fill="#a55a3c"/>
            </g>
            <g>
                <path d="m261.114 18.246h-33c-15.089 0-27.321 12.232-27.321 27.321v29.156h33v-29.156c0-15.089 12.232-27.321 27.321-27.321z"
                      fill="#783c28"/>
            </g>
            <g>
                <path d="m229.652 47.318h80.132v27.405h-80.132z" fill="#93dcfc"/>
            </g>
            <g>
                <path d="m200.793 47.318h30.16v27.405h-30.16z" fill="#81b8fd"/>
            </g>
            <g>
                <path d="m298.711 295.677c-13.115 0-23.747-10.632-23.747-23.746v-35.094h47.493v35.094c.001 13.114-10.631 23.746-23.746 23.746z"
                      fill="#93dcfc"/>
            </g>
            <g>
                <path d="m294.468 39.12c-1.243 0-2.47-.579-3.251-1.666-1.289-1.794-.881-4.293.913-5.583l23.472-16.873c1.794-1.288 4.294-.88 5.583.913 1.289 1.794.881 4.293-.913 5.583l-23.472 16.873c-.707.508-1.523.753-2.332.753z"
                      fill="#a55a3c"/>
            </g>
            <g>
                <path d="m314.13 39.119h-30.514c-2.209 0-4-1.791-4-4s1.791-4 4-4h30.514c2.209 0 4 1.791 4 4s-1.791 4-4 4z"
                      fill="#a55a3c"/>
            </g>
            <path d="m329.797 59.728h-149.017c-5.523 0-10 4.477-10 10 0 5.21 3.986 9.485 9.074 9.953l-2.028 2.222c-1.489 1.631-1.374 4.162.257 5.651.767.7 1.733 1.046 2.696 1.046 1.085 0 2.166-.439 2.955-1.303l2.636-2.887-.54 4.11c-.288 2.19 1.254 4.199 3.445 4.487.177.023.353.035.526.035 1.978 0 3.696-1.466 3.961-3.479l1.292-9.833h134.744c5.522 0 10-4.477 10-10s-4.478-10.002-10.001-10.002z"
                  fill="#a55a3c"/>
        </g>
    </g>
</svg>
