<svg id="Layer_1" enable-background="new 0 0 512.331 512.331" height="512" viewBox="0 0 512.331 512.331" width="512" xmlns="http://www.w3.org/2000/svg"><g><path d="m486.372 256.165c0 16.513-1.646 32.642-4.782 48.231-22.375 111.204-120.609 171.956-238.404 171.956-134.308 0-226.186-85.879-226.186-220.187 0-31.344-11.07-61.304-.271-88.817 35.475-90.38 123.493-154.369 226.457-154.369 134.308 0 243.186 108.878 243.186 243.186z" fill="#62c389"/><g fill="#199a8e"><path d="m485.781 239.307c-3.589-52.395-23.762-100.23-55.326-138.287-5.487 0-10.806-1.841-15.127-5.225-3.027-2.37-6.533-4.977-9.129-6.495-29.604-17.311-57.313-37.672-81.67-61.8-.581-.576-1.282-1.018-2.055-1.284-10.052-3.465-20.402-6.289-31.002-8.425-1.73-.349-3.559.141-4.809 1.387-.007.007-.014.014-.021.021-8.167 8.167-8.167 21.408 0 29.576l29.171 29.171h-102.885c-11.55 0-20.913 9.363-20.913 20.913 0 2.495.459 4.876 1.261 7.094 2.509 6.948 8.647 12.3 16.331 13.53h-35.54c-11.55 0-20.913 9.363-20.913 20.913 0 11.419 9.321 20.913 20.913 20.913h25.928c-9.967 1.595-17.591 10.208-17.591 20.624 0 11.427 9.298 20.87 20.84 20.909.063.005.051.004.073.004h25.65c-10.149 1.624-17.587 10.424-17.591 20.622v.003c0 11.55 9.363 20.913 20.913 20.913h32.379 103.271v-.093c10.206-.447 20.356-2.817 29.57-6.842.057-.025.112-.051.169-.076 9.082-3.991 17.31-9.555 24.348-16.351h42.188v18.285z"/><path d="m258.005 329.483c0-7.851-6.364-26.434-14.215-26.434s-14.215 18.583-14.215 26.434 6.364 14.215 14.215 14.215 14.215-6.364 14.215-14.215z"/><path d="m329.411 295.385c5.552-5.551-3.088-23.192-8.64-28.743-5.551-5.551-14.552-5.551-20.103 0-5.552 5.551-5.552 14.552 0 20.103 5.552 5.552 23.192 14.192 28.743 8.64z"/><path d="m435.789 391.096c-.002.001.001 0 0 0 16.148-23.249 35.613-45.834 42.886-74.013.546-2.116 1.065-4.244 1.555-6.383 2.339-10.205-.536-20.694-6.958-28.963-.208-.267-.407-.543-.598-.828-10.213-15.206-33.65-16.399-45.213-1.746-3.12 3.954-8.128 5.796-13.135 5.247-13.881-1.522-27.207 7.172-31.401 20.475-1.772 5.622-5.664 10.237-10.888 12.97-7.271 3.804-12.234 11.418-12.234 20.193 0 .784-.009 1.565-.028 2.344-1.262 52.627-52.975 89.226-103.418 74.168-22.156-6.614-42.986-16.301-61.996-28.567-16.207-10.457-26.31-28.307-26.379-47.595 0-.117-.001-.234-.001-.351 0-8.135-4.264-15.274-10.679-19.304-6.987-4.389-12.264-10.998-14.596-18.913-3.406-11.558-11.456-25.228-30.481-24.287l-.103.005c-6.207.315-11.926-3.413-14.094-9.238-9.829-26.406-15.209-54.977-15.209-84.807 0-.515.002-1.029.005-1.544.237-38.05-52.188-48.031-66.093-12.612-10.8 27.515-16.731 57.473-16.731 88.818 0 16.788 1.701 33.18 4.941 49.01 22.676 110.816 121.015 175.093 238.534 175.093 80.589.001 147.061-24.028 192.314-89.172z"/></g><g><g><g fill="#ffbe82"><path d="m246.047 244.483h112.968c37.425 0 68.731-29.477 69.791-66.887.023-.798.034-1.598.034-2.401 0-30.658-16.581-57.433-41.264-71.865-30.08-17.588-58.204-38.324-82.843-62.962l-6.783-6.784c-8.018-8.019-21.083-8.613-29.381-.884-8.712 8.114-8.895 21.759-.549 30.105l29.171 29.171h-51.144z"/><path d="m349.318 244.483v-27.895h-135.65c-11.55 0-20.913 9.363-20.913 20.913 0 2.452.444 4.796 1.219 6.982z"/><path d="m194.306 91.975c-11.55 0-20.913 9.363-20.913 20.913 0 3.469.858 6.733 2.353 9.614h94.685c7.533 0 11.529 5.479 11.996 11.299h71.967v-41.826z"/><path d="m155.445 133.513c-11.55 0-20.913 9.363-20.913 20.913 0 3.587.906 6.961 2.496 9.911h133.403c7.404 0 11.382 5.294 11.96 11.002h33.142v-41.826z"/><path d="m184.695 175.05c-11.55 0-20.913 9.363-20.913 20.913 0 3.356.81 6.516 2.215 9.327h103.993c7.656 0 11.65 5.66 12.007 11.586h62.785v-41.826z"/></g><path d="m190.789 133.483h95.19c0-7.456-6.044-13.5-13.5-13.5h-97.824c2.521 6.984 8.642 12.228 16.134 13.5z" fill="#ff965a"/><path d="m184.623 216.873h101.355c0-7.456-6.044-13.5-13.5-13.5h-107.32c2.986 7.865 10.559 13.469 19.465 13.5z" fill="#ff965a"/><path d="m155.445 175.339h130.533c0-7.429-6.023-13.452-13.452-13.452h-136.6c3.008 7.86 10.601 13.452 19.519 13.452z" fill="#ff965a"/><path d="m403.135 115.049-.375 72.883c-.536 29.991-25.009 54.193-54.966 55.728-.209.011-.419.021-.629.03v.093h-3.697-99.574-32.379c-7.859 0-14.697-4.34-18.27-10.749-.314 1.44-.49 2.932-.49 4.466 0 11.55 9.363 20.913 20.913 20.913h32.379 99.574 3.697v-.093c20.987-.918 39.944-9.613 54.087-23.269h75.643v-120.002z" fill="#ff965a"/><path d="m445.593 91.975h66.738v161.361h-66.738z" fill="#93dcfc"/><path d="m512.331 91.975h-36.836v89.387c0 21.845 15.949 39.957 36.836 43.347z" fill="#ddf4fe"/></g><g fill="#ffe046"><path d="m239.383 343.512c0 7.851-6.364 14.215-14.215 14.215s-14.215-6.364-14.215-14.215 6.364-26.434 14.215-26.434c7.85 0 14.215 18.583 14.215 26.434z"/><path d="m225.772 203.689c5.551-5.551 14.552-5.551 20.103 0s5.551 14.552 0 20.103-23.192 14.191-28.743 8.64 3.088-23.192 8.64-28.743z"/><path d="m282.046 300.774c-5.551-5.551-5.551-14.552 0-20.103s14.552-5.551 20.103 0 14.191 23.192 8.64 28.743-23.192-3.088-28.743-8.64z"/></g><path d="m366.546 465.767c58.441-34.473 101.214-92.68 115.035-161.373-4.037-2.477-8.859-3.689-13.738-3.082-5.477.681-10.751-1.88-13.844-6.451-10.239-15.131-33.612-16.297-45.157-1.675-3.123 3.955-8.13 5.801-13.139 5.252-13.881-1.522-27.207 7.172-31.401 20.475-1.772 5.622-5.664 10.237-10.888 12.97-7.271 3.804-12.234 11.418-12.234 20.193 0 52.97-42.941 95.911-95.911 95.911-52.97 0-95.911-42.941-95.911-95.911 0-8.135-4.264-15.274-10.679-19.304-6.986-4.388-12.263-10.994-14.594-18.907-3.405-11.559-11.455-25.234-30.483-24.292-7.271.36-13.985 2.603-19.361 6.593-.167.124-.346.221-.518.334v104.099c0 20.786 9.973 40.305 26.797 52.512.157.114.314.227.471.341 11.073 7.993 24.374 12.316 38.03 12.316h227.525z" fill="#a55a3c"/><path d="m165.019 460.534c-41.848 0-75.773-33.925-75.773-75.773v-81.337c0-7.585-8.599-11.907-14.739-7.454-.06.043-.119.087-.178.13-2.963 2.182-6.785 2.671-10.278 1.514-8.453-2.799-17.869-1.105-24.827 4.594-3.025 2.478-7.14 3.217-10.812 1.872-7.925-2.903-16.498-1.434-23.043 3.06 23.429 109.832 120.996 192.21 237.818 192.21 48.596 0 93.858-14.262 131.842-38.817h-210.01z" fill="#783c28"/></g></g></svg>